PathFileType	4	(X/Y/Z)	1_2_rein_78_p1_0-410.trc
DataRate	CameraRate	NumFrames	NumMarkers	Units	OrigDataRate	OrigDataStartFrame	OrigNumFrames
59.0	59.0	6	27	m	59.0	205	411
Frame#	Time	RHip			RKnee			RAnkle			RBigToe			RSmallToe			RHeel			LHip			LKnee			LAnkle			LBigToe			LSmallToe			LHeel			Neck			Head			Nose			RShoulder			RElbow			RWrist			RThumb			RIndex			RPinky			LShoulder			LElbow			LWrist			LThumb			LIndex			LPinky			
		X1	Y1	Z1	X2	Y2	Z2	X3	Y3	Z3	X4	Y4	Z4	X5	Y5	Z5	X6	Y6	Z6	X7	Y7	Z7	X8	Y8	Z8	X9	Y9	Z9	X10	Y10	Z10	X11	Y11	Z11	X12	Y12	Z12	X13	Y13	Z13	X14	Y14	Z14	X15	Y15	Z15	X16	Y16	Z16	X17	Y17	Z17	X18	Y18	Z18	X19	Y19	Z19	X20	Y20	Z20	X21	Y21	Z21	X22	Y22	Z22	X23	Y23	Z23	X24	Y24	Z24	X25	Y25	Z25	X26	Y26	Z26	X27	Y27	Z27	
205	3.4745762711864407	0.36824374504757623	0.311679541484109	1.1311919161002544	0.3708912290496692	0.23353874780943934	1.5086865005761976	0.33645432835238986	0.42621794755137576	1.9807066750822804	0.33528870087605445	0.17547827611318184	1.99326624010105	0.3923895139022432	0.23564123768500672	2.01266459426611	0.3363877832281086	0.47256794935608987	2.042920212641967	0.14389124849175317	0.3237287897988052	1.1219541657970915	0.14610989683171136	0.265995139133256	1.5087987955074247	0.17710773352561712	0.37448700379255817	1.939573504488793	0.17698451201810358	0.1656650435517051	1.9851403191110528	0.12638868731050043	0.2238408027775845	1.983886189891094	0.20261880313137506	0.468447518532584	2.013749765054559	0.24578702464509405	0.0865829522336643	0.6188753398909841	0.2214778869583351	-0.18648366215403925	0.35663374493310807	0.22003469749659857	-0.13037637230848576	0.542555348382611	0.42549859452743877	0.06419357903498478	0.6071477815868868	0.6439329382058889	0.19431230880829906	0.7616753660734059	0.7992663873935021	0.16423564573224508	0.9499028648524378	0.8049164120834652	0.13216855556061485	1.0753775687207074	0.8305824630353553	0.1435628849964954	1.0990142375309926	0.8521248930858992	0.2188137552828133	1.1045765164023686	0.07164717656427304	0.13545126950467254	0.6223776954869141	-0.10142146254201827	0.2339879815503499	0.7851630808823316	-0.24989195494106536	0.14708661252519786	0.9679022253927578	-0.24622549183423928	0.09558734151674914	1.0571053689789502	-0.3012119983465628	0.13774030890041805	1.1015095402947799	-0.3102884473842252	0.17147692160831252	1.1158917790254146
206	3.4915254237288136	0.368215951530669	0.31125246240834487	1.1310780051253368	0.36679135890664166	0.22086860696255445	1.5086749491316178	0.3364186497223226	0.4258478265292877	1.980515391816731	0.33158916589033266	0.16463444611051706	1.9874699072655693	0.3952672787247672	0.2207438240994661	2.0034026540439176	0.3350621188063101	0.46971677649153254	2.036641362139725	0.144563173765395	0.32559469954089715	1.1265300669311353	0.14119160988802248	0.2793351022480059	1.514920733367179	0.17709293363109646	0.37423892772159795	1.9394018839192562	0.18235864596217602	0.16979170711166425	1.9914559445999063	0.12630461402263557	0.2239614367754296	1.983886363635498	0.1995238594059943	0.455510463430259	2.007345058842712	0.24206985772742118	0.0763855797757997	0.6187181244551688	0.22335288894909053	-0.18973570946145984	0.3684476983494152	0.21475695516445475	-0.12535648325507734	0.5587798000522417	0.4219857563075522	0.05982891819836869	0.6136469055881673	0.6442030257026415	0.19172336957995298	0.765245470510882	0.7991897231356359	0.16441266453020453	0.950024543266899	0.807766159965615	0.1348660094534165	1.087154818378211	0.834372846938289	0.15154161128628754	1.0971924003070277	0.865963091336549	0.22500152301714757	1.1052337278809912	0.06587982329190681	0.12034990162183362	0.628656227549248	-0.1049912096941135	0.23175372834166816	0.785080324477349	-0.25167581739801476	0.1358302988021123	0.966344045211086	-0.24623105197764028	0.09561788860036893	1.0574525699934123	-0.31071586895175773	0.14504513489088025	1.1038346927664806	-0.31342963337968976	0.16643458861464486	1.1185320384690491
207	3.5084745762711864	0.36829319202054855	0.3113895958815577	1.1310812536883894	0.3763656026551947	0.23804814291861784	1.5142017795527662	0.3364897038733408	0.4260596679198632	1.980658022758964	0.33609724372389105	0.17708472463059435	1.997408790314321	0.3954315215239684	0.22066107409041952	2.003499619535075	0.336511510589273	0.4726504393236207	2.042352319220547	0.1440139796215312	0.3236700369788131	1.1217879914753215	0.1489354945260927	0.2782445961419342	1.5133788370099492	0.177152526850534	0.3743685685066084	1.9394826888050425	0.17782616086787906	0.1682645012081679	1.9909351003178897	0.12622601844917847	0.22413366603320947	1.9838730613004247	0.19969766506471653	0.4555029026591525	2.007416721404184	0.24301103014279155	0.07529242941424175	0.6289499646305035	0.22082230999181465	-0.19360458339138445	0.3770554486907481	0.2161824192224879	-0.1306976447669752	0.5706845606378629	0.42253691928312165	0.05751738917949162	0.6168228069622526	0.6442923358283988	0.19240332167172225	0.7650433214072462	0.7992124018457188	0.16476630079616372	0.9502639138307443	0.8117907793830943	0.13611354449417343	1.0876439909990354	0.828491199722905	0.15878107563084534	1.0957383574693578	0.8836812329889977	0.2642779325218751	1.1102068044302602	0.0669279311066102	0.11904393176555127	0.6389701407488441	-0.10711137474013331	0.21841356566871356	0.787323521652524	-0.25505477387138153	0.1340461800787515	0.9699884277463117	-0.2547362061078819	0.10020392175351231	1.0657411094007498	-0.3109134446511802	0.13086458583350893	1.1062140450856852	-0.31473596377088014	0.16864646681593656	1.1154220926221956
208	3.5254237288135593	0.3686017016422487	0.3101376277946857	1.1350309513512478	0.37227805855076407	0.22535991117780615	1.514166185677662	0.3364905629447248	0.4262360407333397	1.9807212666369725	0.3349729146032724	0.1752044435168989	1.9926958704582933	0.39170094689975526	0.23503194043073183	2.011953469214651	0.33655432967973176	0.47282538787040446	2.0424087329318987	0.14097700096529792	0.3149885570265843	1.119884085469708	0.14599553183862665	0.26700396545141963	1.5060597006019096	0.17707568473451046	0.3743269526616953	1.9394322179438583	0.17840584828515205	0.16545800048602333	1.9943413268774428	0.12681666556050666	0.22175196845381262	1.9872473726400572	0.19960029713024174	0.4553680935926997	2.0073019892681527	0.24001782707362798	0.06491523336403703	0.6289544507402687	0.22223338994712116	-0.19792743364116613	0.38583383018375	0.21341733054285075	-0.1405437544256645	0.5744606990171509	0.427178507247657	0.05618003595900301	0.6201329063148713	0.6445797702910425	0.19114694513343652	0.7687171004732644	0.7973836969435365	0.17933406628283516	0.95416752734806	0.8179158457156362	0.14812559217457108	1.094033974359107	0.8378387479491652	0.17041765409527834	1.0977867465817666	0.8791045004546344	0.2635974760160654	1.1099042871892175	0.06305402290709686	0.11723733418370084	0.6392324385387143	-0.10492940213242526	0.2303998688050591	0.7886626338244509	-0.26063868787898864	0.14216355415781748	0.9721427919611614	-0.25308743637286396	0.0885501673448703	1.059676447582611	-0.31159428082571294	0.1303882194806369	1.099443637264354	-0.3224760324876585	0.1826981457956624	1.1050046004326368
209	3.542372881355932	0.36862899022404977	0.31040953194414717	1.1351411039602088	0.3708952391925374	0.2335578632041159	1.5084456290677326	0.3370047060012136	0.42394183562797016	1.9843013669874086	0.33511600042694323	0.17572659739112384	1.9931099463058115	0.3918949807028214	0.23629061365857928	2.0126001075393174	0.3366020965031013	0.4728371785730241	2.0425393000623346	0.14398173638109707	0.32409677366209305	1.1219286271793334	0.14400005691629117	0.2928823201323819	1.516007137502245	0.1772274048607919	0.37446422121601025	1.9396236079119475	0.1804029315311897	0.17587307889961848	1.995030431255177	0.12677652173141993	0.22218228705500032	1.9874514521272852	0.20276603057831358	0.46795169020420285	2.013556076447886	0.24096870010678814	0.06259298447694439	0.6389204883302858	0.22392223723262578	-0.21627079017266207	0.39164892642795607	0.2146310015201411	-0.13937870524185922	0.5813727619790187	0.4278830836553367	0.05417991396164217	0.6233760750337392	0.6444755602320138	0.19157157002756553	0.7683839704613751	0.7914819049135456	0.19227981644131084	0.9613766722990074	0.8190287155020887	0.15078234927515807	1.0990197745766646	0.837777028215117	0.170972739853315	1.0984291596035156	0.876472343189911	0.280240324040172	1.1072298702635814	0.0631077032233977	0.1171998735494499	0.6393413153786712	-0.10824591253900458	0.22692092675330297	0.7922729894847675	-0.26045075567740006	0.14393799869352658	0.976687734891415	-0.255124447363416	0.10454794229096416	1.0652627325395208	-0.317220489911846	0.14315492437000776	1.1066133700951302	-0.32609860644933536	0.17952236438395708	1.1074258158552268
210	3.559322033898305	0.36861173791609725	0.31114325361385414	1.1354109402748973	0.36994931520026675	0.2315563773720462	1.5039588692843744	0.33643585966380074	0.4260937851040877	1.9807164641345942	0.3353125997557125	0.17660491417898155	1.9890566251559239	0.39152819443956294	0.23555570426896255	2.0120012853392995	0.33654177669292096	0.47287417516008456	2.0426341090372913	0.14396399059556592	0.32410955792060625	1.1217593904806638	0.14403329222387912	0.29293228461175286	1.5158348507745183	0.1803957107490366	0.3867310369772045	1.9453759182445738	0.17608443282481168	0.19013371818229657	1.9999747285585021	0.12677760290971032	0.22204688087122207	1.9872747195316407	0.20280918240633142	0.4678953600975275	2.0137036803276205	0.24442479212374424	0.07085876599418728	0.643024899484628	0.22657452828038524	-0.2081112028323308	0.3917871319466237	0.2145903173243914	-0.1400725228246045	0.5847880281109017	0.42881877515100947	0.05375622605172284	0.6301024233989251	0.6420461378668765	0.20568530291679138	0.770934801755962	0.7889039624381043	0.20764411223772464	0.9651357092020123	0.8134105718592751	0.19261090672630032	1.1083733917311136	0.8267561950511343	0.17457342234840897	1.10123483378128	0.8644501355363	0.3102028490246627	1.120228436486797	0.06372169344759152	0.11563187295798091	0.6424139921905568	-0.10433455416585498	0.2026650546077771	0.7961896212744147	-0.2604251466804149	0.14369466070210032	0.9770261434942801	-0.2638820576523076	0.10907393266179613	1.0766982530508258	-0.31696600367886035	0.14121235511884953	1.1094028308457875	-0.3384899045843028	0.20142923399028628	1.113912978307296
